<?xml version="1.0" encoding="UTF-8"?>
<svg data-name="Tools Logo" xmlns="http://www.w3.org/2000/svg" viewBox="0 0 40 40">
    <defs>
        <style>
            .cls-1 {
            fill: none;
            }

            .cls-1, .cls-2 {
            stroke-width: 0px;
            }

            .cls-2 {
            fill: #231f20;
            }

            .cls-3 {
            fill: none;
            stroke: #231f20;
            stroke-linecap: round;
            stroke-miterlimit: 10;
            stroke-width: 3px;
            }
        </style>
    </defs>
    <rect class="cls-1" width="40" height="40"/>
    <g>
        <path class="cls-3" d="m12.96,11.23c0-2.79,3.2-5.05,7.14-5.05s7.14,2.26,7.14,5.05"/>
        <polygon class="cls-2"
                 points="33.06 19.52 33.06 21.53 27.59 21.53 27.59 19.52 12.41 19.52 12.41 21.53 6.94 21.53 6.94 19.52 2.08 19.52 2.08 33.82 37.92 33.82 37.92 19.52 33.06 19.52"/>
        <polygon class="cls-2"
                 points="2.08 8.71 2.08 18.63 6.94 18.63 6.94 12.8 12.41 12.8 12.41 18.63 27.59 18.63 27.59 12.8 33.06 12.8 33.06 18.63 37.92 18.63 37.92 8.71 2.08 8.71"/>
        <rect class="cls-2" x="7.95" y="13.81" width="3.44" height="6.45"/>
        <rect class="cls-2" x="28.61" y="13.81" width="3.44" height="6.45"/>
    </g>
</svg>